<svg width="12" height="12" viewBox="0 0 12 12" fill="none" xmlns="http://www.w3.org/2000/svg">
<path d="M5.51509 4.265C5.55193 4.23067 5.58148 4.18927 5.60198 4.14327C5.62247 4.09727 5.63349 4.04761 5.63438 3.99726C5.63527 3.94691 5.62601 3.8969 5.60715 3.8502C5.58829 3.80351 5.56021 3.76109 5.5246 3.72548C5.48899 3.68987 5.44658 3.6618 5.39988 3.64294C5.35319 3.62408 5.30318 3.61482 5.25282 3.6157C5.20247 3.61659 5.15282 3.62761 5.10682 3.64811C5.06082 3.66861 5.01942 3.69816 4.98509 3.735L2.98509 5.735C2.95019 5.76975 2.92251 5.81105 2.90362 5.85652C2.88472 5.902 2.875 5.95076 2.875 6C2.875 6.04924 2.88472 6.098 2.90362 6.14348C2.92251 6.18895 2.95019 6.23025 2.98509 6.265L4.98509 8.265C5.01942 8.30184 5.06082 8.3314 5.10682 8.35189C5.15282 8.37239 5.20247 8.38341 5.25282 8.3843C5.30318 8.38518 5.35319 8.37592 5.39988 8.35706C5.44658 8.3382 5.48899 8.31013 5.5246 8.27452C5.56021 8.23891 5.58829 8.19649 5.60715 8.1498C5.62601 8.1031 5.63527 8.05309 5.63438 8.00274C5.63349 7.95239 5.62247 7.90273 5.60198 7.85673C5.58148 7.81073 5.55193 7.76933 5.51509 7.735L4.15509 6.375H9.00009C9.09954 6.375 9.19492 6.33549 9.26525 6.26517C9.33558 6.19484 9.37509 6.09946 9.37509 6C9.37509 5.90054 9.33558 5.80516 9.26525 5.73484C9.19492 5.66451 9.09954 5.625 9.00009 5.625H4.15509L5.51509 4.265Z" fill="#2D2D2D"/>
</svg>
