<svg width="11" height="11" viewBox="0 0 11 11" fill="none" xmlns="http://www.w3.org/2000/svg">
<rect x="6.29395" y="7.52771" width="1.2" height="4.28221" rx="0.6" transform="rotate(-46.5443 6.29395 7.52771)" fill="#25BE47"/>
<rect x="0.6" y="0.6" width="7.8" height="7.8" rx="3.9" stroke="#25BE47" stroke-width="1.2"/>
<path d="M3.60701 4.07166V4.27666L4.23201 3.83041L3.60701 3.42833V3.61104C3.35548 3.63428 3.12257 3.75352 2.95666 3.94401C2.79075 4.13449 2.7046 4.38156 2.71611 4.6339C2.72761 4.88624 2.83589 5.12445 3.01844 5.29904C3.20099 5.47364 3.44378 5.5712 3.69638 5.57145C3.92138 5.57145 4.23201 5.49229 4.41076 5.30354C4.63388 5.04583 4.89992 4.39687 4.89992 4.39687L4.10284 4.91354C4.04911 4.97417 3.9818 5.02123 3.90641 5.05088C3.83102 5.08053 3.74968 5.09191 3.66905 5.08412C3.58841 5.07632 3.51077 5.04955 3.44245 5.00601C3.37414 4.96247 3.3171 4.90338 3.27598 4.83357C3.23487 4.76377 3.21086 4.68523 3.2059 4.60437C3.20095 4.52351 3.21519 4.44262 3.24747 4.36832C3.27975 4.29402 3.32916 4.22841 3.39164 4.17685C3.45413 4.12529 3.52793 4.08925 3.60701 4.07166Z" fill="#25BE47"/>
<path d="M5.39301 5.0175V4.8125L4.76801 5.25896L5.39301 5.66062V5.47812C5.64455 5.45488 5.87746 5.33564 6.04336 5.14516C6.20927 4.95468 6.29542 4.7076 6.28391 4.45526C6.27241 4.20292 6.16414 3.96471 5.98159 3.79012C5.79904 3.61552 5.55624 3.51796 5.30364 3.51771C5.07864 3.51771 4.76801 3.59687 4.58947 3.78562C4.36614 4.04333 4.1001 4.69229 4.1001 4.69229L4.89718 4.17562C4.95093 4.11512 5.01821 4.06819 5.09355 4.03864C5.16889 4.0091 5.25015 3.99779 5.33069 4.00563C5.41123 4.01347 5.48878 4.04024 5.55701 4.08376C5.62524 4.12728 5.68221 4.18631 5.72328 4.25604C5.76434 4.32577 5.78834 4.40422 5.79332 4.48499C5.79829 4.56576 5.7841 4.64656 5.7519 4.7208C5.7197 4.79505 5.67041 4.86062 5.60803 4.91219C5.54566 4.96375 5.47199 4.99983 5.39301 5.0175Z" fill="#25BE47"/>
</svg>
