<svg width="12" height="12" viewBox="0 0 12 12" fill="none" xmlns="http://www.w3.org/2000/svg">
<path d="M2.3075 9.5C2.0775 9.5 1.8855 9.423 1.7315 9.269C1.5775 9.115 1.50033 8.92283 1.5 8.6925V5.865C1.5 5.79367 1.52383 5.73417 1.5715 5.6865C1.61917 5.63883 1.67867 5.615 1.75 5.615C1.82133 5.615 1.88083 5.63883 1.9285 5.6865C1.97617 5.73417 2 5.79367 2 5.865V8.692C2 8.78167 2.02883 8.85533 2.0865 8.913C2.14417 8.97067 2.21783 8.9995 2.3075 8.9995H9.6925C9.78217 8.9995 9.85583 8.97067 9.9135 8.913C9.97117 8.85533 10 8.78167 10 8.692V3.3075C10 3.21783 9.97117 3.14417 9.9135 3.0865C9.85583 3.02883 9.78217 3 9.6925 3H5.865C5.79367 3 5.73417 2.97617 5.6865 2.9285C5.63883 2.88083 5.615 2.82133 5.615 2.75C5.615 2.67867 5.63883 2.61917 5.6865 2.5715C5.73417 2.52383 5.79367 2.5 5.865 2.5H9.692C9.922 2.5 10.114 2.57717 10.268 2.7315C10.422 2.88583 10.4993 3.07783 10.5 3.3075V8.6925C10.5 8.9225 10.423 9.1145 10.269 9.2685C10.115 9.4225 9.92283 9.49967 9.6925 9.5H2.3075ZM6.4905 5.8565L8.4565 7.823C8.5055 7.87167 8.563 7.89767 8.629 7.901C8.695 7.90433 8.7555 7.87833 8.8105 7.823C8.8655 7.76767 8.89317 7.70817 8.8935 7.6445C8.89383 7.58083 8.86617 7.5215 8.8105 7.4665L6.835 5.5H8.241C8.312 5.5 8.37133 5.47617 8.419 5.4285C8.46667 5.38083 8.49067 5.32133 8.491 5.25C8.49133 5.17867 8.46733 5.11917 8.419 5.0715C8.37067 5.02383 8.31133 5 8.241 5H6.3945C6.2785 5 6.18233 5.03833 6.106 5.115C6.02967 5.19167 5.99133 5.288 5.991 5.404V7.25C5.991 7.321 6.01483 7.3805 6.0625 7.4285C6.11017 7.4765 6.16967 7.50033 6.241 7.5C6.31233 7.49967 6.37183 7.47583 6.4195 7.4285C6.46717 7.3805 6.491 7.321 6.491 7.25L6.4905 5.8565ZM1.904 4.423C1.788 4.423 1.69167 4.38467 1.615 4.308C1.53833 4.23133 1.5 4.135 1.5 4.019V2.904C1.5 2.788 1.53833 2.69167 1.615 2.615C1.69167 2.53833 1.788 2.5 1.904 2.5H4.019C4.13533 2.5 4.23167 2.53833 4.308 2.615C4.38433 2.69167 4.42267 2.788 4.423 2.904V4.019C4.423 4.13533 4.38467 4.23167 4.308 4.308C4.23133 4.38433 4.135 4.42267 4.019 4.423H1.904Z" fill="#2D2D2D"/>
</svg>
