<svg width="12" height="12" viewBox="0 0 12 12" fill="none" xmlns="http://www.w3.org/2000/svg">
<path d="M10.5 2.25V7.125C10.5 7.32391 10.421 7.51468 10.2803 7.65533C10.1397 7.79598 9.94891 7.875 9.75 7.875H5.25V8.625C5.25006 8.69921 5.2281 8.77177 5.1869 8.83349C5.14569 8.89522 5.08711 8.94333 5.01855 8.97173C4.94999 9.00014 4.87454 9.00757 4.80176 8.99307C4.72898 8.97858 4.66213 8.94282 4.60969 8.89031L3.48469 7.76531C3.44982 7.73049 3.42216 7.68913 3.40329 7.6436C3.38442 7.59808 3.3747 7.54928 3.3747 7.5C3.3747 7.45072 3.38442 7.40192 3.40329 7.3564C3.42216 7.31087 3.44982 7.26951 3.48469 7.23469L4.60969 6.10969C4.66213 6.05718 4.72898 6.02142 4.80176 6.00693C4.87454 5.99243 4.94999 5.99986 5.01855 6.02827C5.08711 6.05667 5.14569 6.10478 5.1869 6.16651C5.2281 6.22823 5.25006 6.30079 5.25 6.375V7.125H9.75V2.25H4.5V2.625C4.5 2.72446 4.46049 2.81984 4.39016 2.89016C4.31984 2.96049 4.22446 3 4.125 3C4.02554 3 3.93016 2.96049 3.85984 2.89016C3.78951 2.81984 3.75 2.72446 3.75 2.625V2.25C3.75 2.05109 3.82902 1.86032 3.96967 1.71967C4.11032 1.57902 4.30109 1.5 4.5 1.5H9.75C9.94891 1.5 10.1397 1.57902 10.2803 1.71967C10.421 1.86032 10.5 2.05109 10.5 2.25ZM7.875 9C7.77554 9 7.68016 9.03951 7.60983 9.10983C7.53951 9.18016 7.5 9.27554 7.5 9.375V9.75H2.25V4.875H6.75V5.625C6.74994 5.69921 6.7719 5.77177 6.8131 5.83349C6.85431 5.89522 6.9129 5.94333 6.98145 5.97173C7.05001 6.00014 7.12546 6.00757 7.19824 5.99307C7.27102 5.97858 7.33787 5.94282 7.39031 5.89031L8.51531 4.76531C8.55018 4.73049 8.57784 4.68913 8.59671 4.6436C8.61558 4.59808 8.62529 4.54928 8.62529 4.5C8.62529 4.45072 8.61558 4.40192 8.59671 4.3564C8.57784 4.31087 8.55018 4.26951 8.51531 4.23469L7.39031 3.10969C7.33787 3.05718 7.27102 3.02142 7.19824 3.00693C7.12546 2.99243 7.05001 2.99986 6.98145 3.02827C6.9129 3.05667 6.85431 3.10478 6.8131 3.16651C6.7719 3.22823 6.74994 3.30079 6.75 3.375V4.125H2.25C2.05109 4.125 1.86032 4.20402 1.71967 4.34467C1.57902 4.48532 1.5 4.67609 1.5 4.875V9.75C1.5 9.94891 1.57902 10.1397 1.71967 10.2803C1.86032 10.421 2.05109 10.5 2.25 10.5H7.5C7.69891 10.5 7.88968 10.421 8.03033 10.2803C8.17098 10.1397 8.25 9.94891 8.25 9.75V9.375C8.25 9.27554 8.21049 9.18016 8.14017 9.10983C8.06984 9.03951 7.97446 9 7.875 9Z" fill="white"/>
</svg>
