<svg width="12" height="12" viewBox="0 0 12 12" fill="none" xmlns="http://www.w3.org/2000/svg">
<path d="M8.96 5.81C8.9362 5.74862 8.90052 5.69255 8.855 5.645L6.355 3.145C6.30838 3.09838 6.25304 3.0614 6.19212 3.03617C6.13121 3.01094 6.06593 2.99795 6 2.99795C5.86685 2.99795 5.73915 3.05085 5.645 3.145C5.59838 3.19162 5.5614 3.24696 5.53617 3.30787C5.51094 3.36879 5.49795 3.43407 5.49795 3.5C5.49795 3.63315 5.55085 3.76085 5.645 3.855L7.295 5.5H3.5C3.36739 5.5 3.24021 5.55268 3.14645 5.64645C3.05268 5.74021 3 5.86739 3 6C3 6.13261 3.05268 6.25978 3.14645 6.35355C3.24021 6.44732 3.36739 6.5 3.5 6.5H7.295L5.645 8.145C5.59814 8.19148 5.56094 8.24678 5.53555 8.30771C5.51017 8.36864 5.4971 8.43399 5.4971 8.5C5.4971 8.56601 5.51017 8.63136 5.53555 8.69229C5.56094 8.75322 5.59814 8.80852 5.645 8.855C5.69148 8.90186 5.74678 8.93906 5.80771 8.96445C5.86864 8.98983 5.93399 9.0029 6 9.0029C6.06601 9.0029 6.13136 8.98983 6.19229 8.96445C6.25322 8.93906 6.30852 8.90186 6.355 8.855L8.855 6.355C8.90052 6.30745 8.9362 6.25138 8.96 6.19C9.01001 6.06827 9.01001 5.93173 8.96 5.81Z" fill="#2D2D2D"/>
</svg>
